<svg xmlns="http://www.w3.org/2000/svg" viewBox="0 0 40 38" fill="inherit" role="img">
    <g fill="none" fillRule="evenodd">
        <path
            fill="#0C3D52"
            d="M21.072 38C35.353 38 40 27.278 40 19.681 40 12.084 32.967-1.257 21.072.095 10.524.437 0 5.762 0 17.405 0 29.05 6.792 38 21.072 38z"
        ></path>
        <path
            fill="#73CFE8"
            d="M16.054 18.76c.496.732 1.676-.234 1.676 1.238s-1.292 5.977-.937 8.547c.355 2.57 1.164 4.455 3.57 4.455 2.406 0 4.322-1.956 5.648-3.205 1.325-1.25 1.312-2.219 0-1.735-1.313.485-2.783.156-2.783-1.77 0-1.924-.315-5.258-.315-7.213S22.155 16 20.363 16c-1.792 0-4.805 2.03-4.309 2.76zM20.688 13C23.187 13 24 11.307 24 10.108c0-1.2-1.23-3.306-3.312-3.093C18.842 7.07 17 7.91 17 9.748 17 11.587 18.189 13 20.688 13z"
        ></path>
    </g>
</svg>
