<svg width="68.1" height="43" xmlns="http://www.w3.org/2000/svg">
  <path transform="rotate(90 34.55 20.35)" id="svg_1" fill="#009BC8" d="m55.3,19.8l-1,-1.2l-0.7,-0.9l-1.5,-1.8c-1,-1.2 -1.9,-2.3 -2.8,-3.5l-0.1,0.6l-0.7,-0.8c-0.1,-0.3 0,-0.5 0.4,0.1c-0.1,-0.4 -0.9,-0.8 -1,-0.8c-0.8,-1.2 0.7,0.1 0.4,-0.2l-0.4,-0.3l0.1,0.1c-0.4,-0.3 -0.6,-0.2 -1.1,-0.9c-0.3,-0.5 0,-0.4 -0.2,-0.5c0,0 0,-0.1 -0.2,-0.3l-0.8,-1l0.1,0.6c-0.5,-0.3 -0.8,-0.9 -0.6,-0.3c-0.2,-1 -3,-3.7 -3.3,-4.2c-0.7,-0.5 -1.2,-1.1 -1.8,-1.8c0.1,0.2 0,0.5 -0.6,-0.1c0.7,-0.2 -0.8,-1.3 -0.9,-2.2c0.2,0.7 -1.6,-1.7 -1.4,-0.7c-0.4,-0.6 0.2,-0.2 -0.1,-0.7c-1.3,-1.1 -2.3,-2.9 -3.7,-4.4c-0.1,0 0,0.4 -0.4,0.1l-0.4,-1.1c-0.3,-0.3 -0.6,0.1 -0.9,-0.7c0,0.1 0,0.3 -0.2,0.1c-0.4,-0.6 -0.8,-1.1 -1.3,-1.7l-0.7,-0.8l-1,-1.1l-4.4,0c-1.4,0 -2.7,-0.1 -4.1,-0.4c0.6,0.2 0.2,0.2 -0.2,0.2c0.3,0 0,0.2 0,0.3l-1.7,-0.3c-0.3,0.3 -1.8,0 -2,0.3l0.5,-0.1c-0.4,0.2 -0.1,0.4 0.3,0.7l-1.7,0l16.1,18.2s0,-0.1 -0.1,-0.1c0,0 0.4,0.5 0.2,0.3l0.7,0.8c-0.5,-0.3 1.3,1.8 1.6,1.7l3.6,4.1s-0.1,0 0,0.1l0.4,0.4c0.1,0.5 3.6,3.8 3.2,3.7l0.4,0.6l-0.2,0.3l-0.8,0.3l-0.1,0c0,0.1 0.1,0.1 0.2,0.2c-0.1,0.1 -0.1,0.2 -0.2,0.3l-0.1,0.2c0,0.1 0,0.1 -0.2,0.2c-0.4,0.5 -0.9,1 -1.5,1.4c-0.3,0.4 -0.5,0.8 -1.1,1.3l-0.2,0c-0.4,0.5 -1.4,1.2 -1.4,1.5c-0.8,0.1 -2.1,2.1 -2.8,2.8l0.2,0.2c-0.5,0.5 -0.9,1.1 -1.5,1.8l0.2,0.1c-0.4,0.7 -1.5,1.4 -2.3,2.3c0,-0.1 0.2,-0.3 0.4,-0.5c-1.4,0.8 -1.8,2.6 -3,3.3c-0.2,0.3 -0.3,0.5 -0.5,0.6l0,-0.2l-0.1,0.1c-0.1,0.1 -0.3,0.2 -0.4,0.3c0.1,-0.1 0.3,-0.1 0.4,-0.2c-0.2,0.2 -0.4,0.5 -0.6,0.8l-0.3,0l-0.1,0.1c-0.3,0.2 -0.1,0.3 0.2,0.3c-0.1,0.2 -0.2,0.3 -0.2,0.5c-0.5,0 -0.6,0.8 -1.2,0.9c0,0.3 -1.2,1.5 -1,2c0,0 -0.1,0 0,-0.1c-0.3,0.3 -0.6,0.6 -0.8,0.9l-0.3,-0.1l-0.3,1c-0.5,0.3 -0.8,0.4 -0.6,-0.2c-0.6,1.3 -0.6,0.9 -1.1,2l-0.1,-0.2c-0.3,0.3 -0.5,1 -0.8,1.1c-0.2,0.1 -0.5,0.3 -0.8,0.7c-0.2,0.2 -0.4,0.4 -0.5,0.6c-0.3,0.3 -0.5,0.6 -0.8,0.9c-1.2,1.3 -2.5,2.8 -4,4.2l0.4,0c0.3,-0.3 0.5,-0.2 0.9,-0.2c0.3,0.1 0.8,0.2 1.2,-0.1c0,0.1 0.4,0.2 -0.4,0.3c1.1,-0.1 1.7,-0.1 2.3,-0.1s1.3,0 1.9,-0.2c0.2,0.1 -0.4,0.2 -0.3,0.3c0.1,0 0.2,-0.1 0.4,-0.1l0.3,0c0.1,0 0,0.1 -0.1,0.1s-0.3,0.1 -0.5,0.1l0.6,0c0.1,0 0.2,0 0.3,-0.1c0.2,-0.1 0.3,-0.1 0.4,-0.2c0.2,-0.2 0.2,-0.4 0.3,-0.6c0.6,0.2 0.9,0.1 1.4,-0.1c0.2,0.1 0.6,0.2 -0.2,0.3c0.4,0 2.6,0.1 2.7,-0.2c0.1,0.1 0.6,0 0.7,0l1.3,0c0.2,-0.2 0.5,-0.5 0.8,-0.9c-0.1,0 -0.1,0.1 -0.2,0.2c0,-0.6 0.5,-0.6 1,-1.2c1.4,-1.1 0.4,-0.6 1.9,-1.7l0,0.1c-0.3,-0.5 1.3,-0.9 1.8,-1.8l-0.4,0.2c0.3,-0.5 1.6,-0.6 2,-1c0.1,-0.1 -0.1,0.2 -0.2,0.3c1.2,-0.8 -0.1,-0.4 0.6,-1.2c0.3,0 0.1,0.5 0.7,0c0.3,-0.2 1.1,-1.9 2,-2.4c-0.2,0.1 -0.5,0.1 -0.2,-0.3c0.5,-0.6 1.8,-1.2 2,-1.9l0.2,0c0.3,-0.5 1.2,-1.5 1.3,-1.9c1,0.2 2.2,-2.9 2.8,-2.4l1.2,-1.3l0,0.1c0.8,-0.8 1,-1.2 1.1,-1.6c0.2,-0.2 0.1,0 0.2,0.1c1.3,-1.1 1.4,-1.3 2.1,-2.5l0.3,0.1c0.2,-0.4 2,-1.5 2.9,-2.9l0,0.2c1.1,-1.5 3.6,-2.7 3.4,-3.9c0.2,-0.4 0.4,-0.7 0.8,-1.1c-0.4,0.4 -0.5,0.5 -0.6,0.5s-0.1,-0.1 0,-0.2c0,-0.2 0.2,-0.5 -0.1,-0.3c0.2,-0.2 0.5,-0.5 0.8,-0.7s0.4,-0.2 0.1,0.2l-0.1,0.1c0.1,0.3 0.7,-0.3 1.3,-0.9c-0.6,-0.5 -1,-0.9 -0.8,-1zm-34.2,31.1c-0.2,0 0,-0.2 0.2,-0.3c-0.1,0 -0.2,0.1 -0.2,0.1c-0.2,0 -0.2,-0.1 -0.2,-0.2l0.6,0l-0.1,0.1c0.1,0 0.2,-0.1 0.3,-0.1l0.3,0c0.2,0.1 0.4,0.2 0.5,0.2l-1.4,0.2z"/>
</svg>
