<svg version="1" xmlns="http://www.w3.org/2000/svg" width="666.667" height="666.667" viewBox="0 0 500.000000 500.000000"><path fill="rgba(255, 255, 255, 0.6)" d="M227 1c-20.5 1.3-38.5 5.4-62 14.2-26.5 9.9-59.1 28.6-73.7 42.2l-5.8 5.4 22.1 22.4c22.8 23 27.2 28.8 25.9 34.1-.8 2.9-9.1 11.2-12.3 12.2-4.9 1.5-11-3.2-34-25.9L64.8 83.5 58.7 90c-12.3 13-31.8 47.2-42.2 74-4.7 11.9-9.9 32.2-12.2 47.6-2.5 16.8-2.5 58 0 74.8 2.3 15.3 7.5 35.6 12.2 47.6 9.4 24.4 30.7 62.3 40.8 72.7 5.9 6.2 7.6 5.3 30.7-17.2 22.2-21.5 24.1-23 30.4-22.9 5.8 0 10.8 2.3 13.2 5.9 2.4 3.7 2.1 10.6-.6 15-1.2 2-11.9 13.6-23.6 25.7-11.8 12.2-21.4 22.4-21.3 22.7.1 1.4 13.8 12.1 24.7 19.4 13.7 9.1 43 23.9 58.7 29.5 23.4 8.4 44.9 12.1 75 12.9 48.5 1.2 86.2-8.1 129.1-31.8 18.2-10.1 42.7-27.6 42.1-30.1-.1-.4-9.7-10.5-21.3-22.5-23.8-24.6-26.4-27.9-26.4-33.3 0-7.1 7.2-14 14.6-14 4.7 0 8.8 3.3 32.6 26.3 12 11.7 22.2 21.3 22.6 21.4.4.1 3.2-2.7 6.2-6.3 22.9-27 44.3-72.4 51.9-110.1 5.3-25.9 5.3-69.7.1-95.4-6.4-31.3-21.2-67.1-38.7-93.1-7.2-10.9-18-24.6-19.4-24.7-.3-.1-10.5 9.5-22.7 21.3-12.1 11.7-23.7 22.4-25.8 23.6-10.2 6.4-20.7 0-20.8-12.6-.1-6.3 1.4-8.2 22.9-30.4C408.9 68.1 412 64.3 412 60.8c0-3.3-4.6-7.4-19.1-17.1-31-20.6-70.1-36.2-103.3-41.2C277.8.8 243.5-.1 227 1zm50.8 134.1c14.8 1.6 22.9 3.5 31.2 7.5 18.3 8.6 20.1 13.5 12.9 33.6-2.2 6.2-4.3 12-4.6 13-.4 1.4-2.1.8-11.6-3.8-16-7.7-26.4-10.5-41.5-11.1-24.8-1.1-37.9 5.6-40.7 20.7-.7 3.9 1.3 10.5 4.5 14.9 2.7 4 14.4 9.7 35.5 17.6 31.8 12 45.3 19.2 54.8 29.4 15.6 16.7 18.2 45.4 6.3 69.6-8.3 16.7-26.8 30.2-48.2 35-9.5 2.2-41.3 3.1-52.9 1.6-11.1-1.5-30.6-7.9-42.8-14-8.8-4.4-9.2-4.7-8.9-7.6.4-4 6.7-24.4 9.7-31.1l2.4-5.4 3.3 1.4c1.8.8 6.7 3.2 10.8 5.5 30 16.1 64.2 16.9 79.9 1.8 12.2-11.8 8.8-26.2-8.6-35.4-3.2-1.7-13.4-6.1-22.8-9.8-17.6-7-36.7-16.2-44.5-21.4-12-8.2-20.6-19.9-23.5-32.2-1.9-8.2-1.9-23.6 0-31.8 4.6-19.4 21.3-36.9 42.7-44.7 11.4-4.2 35.9-5.6 56.6-3.3z"/></svg>
